:FULLY-SPECIFIED
:DEGREES
2297
root 4.26399 16.4831 -1.10029 -87.7255 -86.6342 104.067
lowerback -6.4472 -2.26037 -2.45372
upperback -4.52921 -3.01897 0.515296
thorax -0.908674 -1.51026 1.73468
lowerneck -15.1744 -0.0388358 1.594
upperneck 23.3931 -1.09829 1.06719
head 9.94192 -0.374428 -0.0599921
rclavicle -6.36111e-015 -1.70955e-014
rhumerus -41.1515 -7.34913 -78.7219
rradius 33.0646
rwrist 16.5893
rhand -24.0612 -5.53526
rfingers 7.12502
rthumb 2.41821 -35.5013
lclavicle -6.36111e-015 -1.70955e-014
lhumerus -29.7971 -14.957 85.9808
lradius 42.3786
lwrist -3.62019
lhand -35.6793 -2.45991
lfingers 7.12502
lthumb -8.80034 27.3366
rfemur -44.0266 10.7443 11.3739
rtibia 23.6956
rfoot -6.43493 -15.1351
rtoes -13.3576
lfemur -15.1783 -18.4421 -29.3031
ltibia 17.039
lfoot -14.0116 24.5876
ltoes -7.43997
2298
root 4.26715 16.4946 -1.10252 -88.3172 -86.5247 104.81
lowerback -6.59716 -2.28621 -2.52819
upperback -4.54498 -3.04795 0.497231
thorax -0.838226 -1.52522 1.74982
lowerneck -15.2732 -0.0712024 1.52458
upperneck 23.2982 -1.13573 1.13192
head 9.92746 -0.388378 -0.030186
rclavicle 6.36111e-014 1.35174e-014
rhumerus -41.304 -7.47339 -78.5964
rradius 33.0352
rwrist 16.6039
rhand -23.921 -5.46637
rfingers 7.12502
rthumb 2.55364 -35.4308
lclavicle 6.36111e-014 1.35174e-014
lhumerus -29.6804 -15.2065 85.9642
lradius 42.6735
lwrist -3.63888
lhand -35.7898 -2.411
lfingers 7.12502
lthumb -8.90693 27.381
rfemur -43.6589 12.5435 9.94241
rtibia 20.5047
rfoot -5.52969 -17.5105
rtoes -12.624
lfemur -14.2347 -18.3108 -29.5089
ltibia 15.9933
lfoot -13.8465 24.4467
ltoes -7.9564
2299
root 4.27046 16.4992 -1.107 -90.1505 -86.4236 106.801
lowerback -6.75821 -2.27546 -2.54395
upperback -4.56951 -3.03148 0.450427
thorax -0.777228 -1.51909 1.70528
lowerneck -15.2587 -0.0947494 1.49246
upperneck 23.1569 -1.16131 1.1714
head 9.87465 -0.397927 -0.013712
rclavicle -1.35174e-014 -8.74653e-015
rhumerus -41.4461 -7.57693 -78.5413
rradius 32.9874
rwrist 16.6541
rhand -23.8257 -5.55564
rfingers 7.12502
rthumb 2.64573 -35.519
lclavicle -1.35174e-014 -8.74653e-015
lhumerus -29.5712 -15.4078 85.8994
lradius 42.8406
lwrist -3.73589
lhand -35.7808 -2.50142
lfingers 7.12502
lthumb -8.89829 27.2909
rfemur -43.4003 14.518 8.4264
rtibia 17.669
rfoot -4.88627 -20.5053
rtoes -12.3249
lfemur -13.3385 -18.1755 -29.689
ltibia 15.0069
lfoot -13.6038 24.3403
ltoes -8.42691
2300
root 4.27455 16.4999 -1.1129 -90.3864 -86.2802 107.114
lowerback -6.79638 -2.2769 -2.60106
upperback -4.58952 -3.03121 0.378539
thorax -0.778075 -1.51918 1.66223
lowerneck -15.2301 -0.130666 1.41187
upperneck 23.0039 -1.20758 1.27653
head 9.81591 -0.413942 0.0311795
rclavicle -1.59028e-014 -7.95139e-016
rhumerus -41.6387 -7.70272 -78.4902
rradius 32.9839
rwrist 16.6534
rhand -23.8327 -5.44677
rfingers 7.12502
rthumb 2.63895 -35.4102
lclavicle -1.59028e-014 -7.95139e-016
lhumerus -29.4681 -15.6048 85.8661
lradius 43.0177
lwrist -3.58687
lhand -35.7651 -2.42052
lfingers 7.12502
lthumb -8.88309 27.3725
rfemur -43.119 16.2214 7.0422
rtibia 15.2283
rfoot -4.91571 -23.6542
rtoes -11.8727
lfemur -12.4188 -18.0019 -29.9355
ltibia 14.1521
lfoot -13.414 24.0905
ltoes -9.01098
2301
root 4.27865 16.5018 -1.12034 -90.8144 -86.1317 107.613
lowerback -6.82101 -2.27809 -2.70673
upperback -4.60433 -3.02791 0.335074
thorax -0.777413 -1.51628 1.67611
lowerneck -15.3051 -0.143394 1.41884
upperneck 22.9503 -1.21181 1.23282
head 9.81061 -0.418713 0.0143686
rclavicle -2.8625e-014 5.96354e-015
rhumerus -41.7792 -7.74211 -78.4435
rradius 32.9324
rwrist 16.7826
rhand -23.8135 -5.4213
rfingers 7.12502
rthumb 2.65751 -35.3845
lclavicle -2.8625e-014 5.96354e-015
lhumerus -29.3662 -15.7026 85.8476
lradius 43.1438
lwrist -3.70535
lhand -35.7881 -2.45308
lfingers 7.12502
lthumb -8.90528 27.339
rfemur -42.8089 17.5531 5.98648
rtibia 13.1687
rfoot -5.54573 -26.56
rtoes -10.8972
lfemur -11.6375 -17.7682 -30.1744
ltibia 13.5436
lfoot -13.3982 23.7883
ltoes -9.72363
2302
root 4.28026 16.4979 -1.12996 -92.063 -86.0882 108.912
lowerback -6.84645 -2.26338 -2.68291
upperback -4.59825 -3.00893 0.31204
thorax -0.76029 -1.50794 1.63914
lowerneck -15.4268 -0.135807 1.44468
upperneck 22.9305 -1.19866 1.20423
head 9.82629 -0.411613 0.00170373
rclavicle -1.82882e-014 -3.97569e-016
rhumerus -41.8211 -7.72486 -78.4402
rradius 32.788
rwrist 16.8622
rhand -23.7729 -5.51762
rfingers 7.12502
rthumb 2.69668 -35.4803
lclavicle -1.82882e-014 -3.97569e-016
lhumerus -29.2665 -15.7583 85.819
lradius 43.2279
lwrist -3.58787
lhand -35.8649 -2.56873
lfingers 7.12502
lthumb -8.97946 27.2202
rfemur -42.5912 18.692 5.30822
rtibia 11.6643
rfoot -6.43888 -29.1905
rtoes -9.62697
lfemur -10.8643 -17.3884 -30.3066
ltibia 13.0306
lfoot -13.3148 23.4408
ltoes -10.6294
2303
root 4.28 16.4935 -1.1393 -92.7248 -85.9782 109.643
lowerback -6.89515 -2.24358 -2.7074
upperback -4.61862 -2.98175 0.262415
thorax -0.757307 -1.49502 1.60211
lowerneck -15.3983 -0.161644 1.39475
upperneck 22.8023 -1.22318 1.24335
head 9.7758 -0.422477 0.0211013
rclavicle 1.27222e-014 5.96354e-015
rhumerus -41.9305 -7.7642 -78.4028
rradius 32.6638
rwrist 17.1147
rhand -23.734 -5.37989
rfingers 7.12502
rthumb 2.73422 -35.3421
lclavicle 1.27222e-014 5.96354e-015
lhumerus -29.197 -15.6635 85.7929
lradius 43.2116
lwrist -3.87192
lhand -35.7317 -2.36928
lfingers 7.12502
lthumb -8.85087 27.4251
rfemur -42.3565 19.3241 4.97822
rtibia 10.6714
rfoot -7.08179 -31.1342
rtoes -8.81916
lfemur -10.2062 -17.0667 -30.4923
ltibia 12.7014
lfoot -13.2632 23.0216
ltoes -11.2353
2304
root 4.28037 16.4876 -1.15003 -93.4844 -85.8122 110.445
lowerback -6.92587 -2.20916 -2.78073
upperback -4.61799 -2.93176 0.18717
thorax -0.74268 -1.46993 1.56773
lowerneck -15.3844 -0.182781 1.37575
upperneck 22.6731 -1.2378 1.23908
head 9.72733 -0.430705 0.021456
rclavicle 7.95139e-015 2.74323e-014
rhumerus -41.9999 -7.78342 -78.3942
rradius 32.533
rwrist 17.2423
rhand -23.7386 -5.32935
rfingers 7.12502
rthumb 2.72982 -35.2916
lclavicle 7.95139e-015 2.74323e-014
lhumerus -29.1183 -15.5989 85.8001
lradius 43.1587
lwrist -3.83466
lhand -35.9428 -2.60289
lfingers 7.12502
lthumb -9.05458 27.1828
rfemur -42.1306 19.5098 5.00079
rtibia 10.2648
rfoot -7.32256 -32.2913
rtoes -8.04565
lfemur -9.5902 -16.7569 -30.7342
ltibia 12.4913
lfoot -13.2642 22.6922
ltoes -12.1942
2305
root 4.28001 16.4844 -1.16165 -94.4027 -85.6941 111.382
lowerback -6.91446 -2.19153 -2.81898
upperback -4.59853 -2.9057 0.149434
thorax -0.730291 -1.45663 1.55201
lowerneck -15.4741 -0.167316 1.37771
upperneck 22.608 -1.2009 1.19768
head 9.72079 -0.41621 0.0116341
rclavicle -3.26007e-014 -6.36111e-015
rhumerus -41.9228 -7.8575 -78.342
rradius 32.2736
rwrist 17.5434
rhand -23.6307 -5.23346
rfingers 7.12502
rthumb 2.83406 -35.1944
lclavicle -3.26007e-014 -6.36111e-015
lhumerus -29.0758 -15.3035 85.7668
lradius 43.1498
lwrist -3.99781
lhand -35.8717 -2.55685
lfingers 7.12502
lthumb -8.98603 27.2318
rfemur -41.8371 18.9862 5.72296
rtibia 10.41
rfoot -6.87387 -32.2458
rtoes -8.22473
lfemur -9.0073 -16.3742 -30.9285
ltibia 12.4296
lfoot -13.3585 22.2699
ltoes -12.8712
2306
root 4.27429 16.4767 -1.17128 -95.4542 -85.567 112.442
lowerback -6.94508 -2.15998 -2.7881
upperback -4.5894 -2.86457 0.0830795
thorax -0.710549 -1.438 1.46785
lowerneck -15.5129 -0.149726 1.43043
upperneck 22.54 -1.16218 1.10724
head 9.70303 -0.402896 -0.0234466
rclavicle -7.95139e-016 1.31198e-014
rhumerus -41.8914 -7.93292 -78.2999
rradius 32.0639
rwrist 17.819
rhand -23.6092 -5.09604
rfingers 7.12502
rthumb 2.85481 -35.0567
lclavicle -7.95139e-016 1.31198e-014
lhumerus -29.1207 -15.0087 85.7706
lradius 43.0606
lwrist -4.0469
lhand -35.8686 -2.56451
lfingers 7.12502
lthumb -8.98305 27.2242
rfemur -41.4639 17.7549 7.03635
rtibia 11.0578
rfoot -6.4242 -31.0465
rtoes -8.52803
lfemur -8.49666 -15.8755 -31.1467
ltibia 12.536
lfoot -13.437 21.8212
ltoes -14.1385
